<svg version="1.2" xmlns="http://www.w3.org/2000/svg" viewBox="0 0 28 25" width="28" height="25"><style>.a{fill:#3c3c3c}</style><path fill-rule="evenodd" class="a" d="m22.2 25c0.4 0 0.8-0.4 0.8-0.8v-18.4c0-0.4-0.4-0.8-0.8-0.8h-1.8c-0.2 0-0.4-0.2-0.4-0.4v-1.2c0-1.9-1.5-3.4-3.4-3.4h-5.2c-1.9 0-3.4 1.5-3.4 3.4v1.2c0 0.2-0.2 0.4-0.4 0.4h-1.8c-0.5 0-0.8 0.4-0.8 0.8v18.4c0 0.4 0.3 0.8 0.8 0.8zm-5.4-23c0.7 0 1.2 0.5 1.2 1.2v1.4c0 0.2-0.2 0.4-0.4 0.4h-7.2c-0.3 0-0.4-0.2-0.4-0.4v-1.4c0-0.7 0.5-1.2 1.1-1.2zm-14.9 3c-1 0-1.9 0.9-1.9 2v16c0 1.1 0.9 2 1.9 2h1.3c0.4 0 0.8-0.4 0.8-0.8v-18.4c0-0.5-0.4-0.8-0.8-0.8zm22 19.2c0 0.4 0.3 0.8 0.8 0.8h1.2c1.1 0 2-0.9 2-2v-16c0-1.1-0.9-2-2-2h-1.2c-0.5 0-0.8 0.3-0.8 0.8z"/></svg>