<svg version="1.2" xmlns="http://www.w3.org/2000/svg" viewBox="0 0 26 26" width="26" height="26"><style>.a{fill:#3c3c3c}</style><path fill-rule="evenodd" class="a" d="m13 0c-7.2 0-13 5.8-13 13 0 7.2 5.8 13 13 13 7.2 0 13-5.8 13-13 0-7.2-5.8-13-13-13zm1 22.3c-0.1-0.9 0.6-2.7 2-4.1 2.4-2.5 0.5-3.9-1.8-4.2-2.4-0.3-4.1 0.7-4.6-0.9-0.6-1.6 0.4-2.3 0.8-2.4 0.3-0.1 1-0.5 2.1 0.8 0.5 0.5 1.1 0.6 1.1 0 0-0.6-0.8-1.8 0-2.7 0.8-0.9 2.6-1.3 2.5-2.7-0.1-1.4-1.2-1.9-2.6-1.6-1.4 0.4-2.1 0.7-2.5-0.5q-0.1-0.4-0.2-0.8c-0.1-0.3 0.1-0.6 0.4-0.7q0.9-0.1 1.8-0.1c4.3 0 8 2.6 9.7 6.3 0.5 1.2-0.2 2.7-1.5 3-1.6 0.3-2.4 1-0.6 2.6 0.5 0.3 0.9 0.5 1.4 0.9 0.7 0.5 1 1.5 0.6 2.4-1.4 2.8-4 5-7.2 5.7-0.7 0.2-1.4-0.3-1.4-1zm-5.1-19.1c0.2 0 0.4 0 0.5 0.2 0.1 0.4-0.2 0.9-1.6 1.9-1.8 1.4-2.1 2.6-1.7 4.8 0.3 2.3 1.6 2.4 2.5 4.1 0.8 1.7 0.1 3.2 1.3 6.1 0.6 1.2 1.3 1.9 1.6 2.5 0.2 0.3-0.1 0.7-0.5 0.6-4.9-0.9-8.6-5.2-8.6-10.4 0-4.4 2.7-8.2 6.5-9.8z"/></svg>