<svg version="1.2" xmlns="http://www.w3.org/2000/svg" viewBox="0 0 26 23" width="26" height="23"><style>.a{fill:#3c3c3c}</style><path fill-rule="evenodd" class="a" d="m21 2h-15v-1.1c0-0.5 0.4-0.9 0.9-0.9h13.2c0.5 0 0.9 0.4 0.9 0.9zm1 5h-18v-3.1c0-0.5 0.4-0.9 1-0.9h16c0.5 0 1 0.4 1 0.9zm1.9-2.8c-0.1-0.2-0.4-0.3-0.6-0.2-0.2 0-0.3 0.2-0.3 0.4v3.2c0 0.2-0.2 0.4-0.5 0.4h-19c-0.3 0-0.5-0.2-0.5-0.4v-3.2c0-0.2-0.1-0.4-0.3-0.4-0.2-0.1-0.5 0-0.6 0.2l-1.8 3.3q-0.3 0.6-0.3 1.2l1 13.1c0.1 0.7 0.6 1.2 1.3 1.2h21.4c0.7 0 1.2-0.5 1.3-1.2l1-13.1q0-0.6-0.3-1.2zm-13.1 12.8c-2.1 0-3.7-1.6-3.7-3.7 0-0.6 0.2-1.3 1.1-1.3 1 0 1.2 0.7 1.2 1.4 0 0.7 0.6 1.3 1.3 1.3h4.7c0.8 0 1.4-0.6 1.4-1.3 0-0.7 0.3-1.4 1.1-1.4 0.9 0 1.2 0.7 1.2 1.3 0 2.1-1.7 3.7-3.7 3.7z"/></svg>