<svg version="1.2" xmlns="http://www.w3.org/2000/svg" viewBox="0 0 36 36" width="36" height="36"><style>.a{fill:#fff}.b{fill:#3c3c3c}</style><path class="a" d="m18 2c8.8 0 16 7.2 16 16 0 8.8-7.2 16-16 16-8.8 0-16-7.2-16-16 0-8.8 7.2-16 16-16z"/><path fill-rule="evenodd" class="b" d="m20.5 24.8c-2.1 1.9-8.5 1.6-8.5-1.8 0-3.5 4.8-3.5 5.2-3.5 0.4 0 0.4-0.1 0.1-0.5-0.3-0.3-0.8-1-0.2-1.8-1.1 0.1-4.1-0.5-4.1-3.3 0-2.8 2.9-3.9 3.9-3.9 1.1 0 4.2 0 5.2 0 0 0-0.2 0.2-0.8 0.5-0.5 0.3-1.5 0.1-1.5 0.1 0 0 1.4 0.9 1.4 2.6 0 1.7-0.8 2.5-1.9 3.4-1 0.9-0.4 1.5 1.2 2.6 1.7 1.2 2.1 3.8 0 5.6zm-3.8-14.3c-3 0-1.9 6 0.7 6 3.5 0 1.7-6.1-0.7-6zm3.8 12.3c0-1.5-1.4-2.2-2.2-2.9-2.9 0-4.5 0.8-4.5 2.4 0 1.6 1.2 2.7 3.3 2.7 2.2 0 3.4-0.7 3.4-2.2zm4.5-12.8v2h2v1h-2v2h-1v-2h-2v-1h2v-2z"/></svg>