<svg version="1.2" xmlns="http://www.w3.org/2000/svg" viewBox="0 0 36 36" width="36" height="36"><style>.a{fill:#fff}.b{fill:#3c3c3c}</style><path class="a" d="m18 2c8.8 0 16 7.2 16 16 0 8.8-7.2 16-16 16-8.8 0-16-7.2-16-16 0-8.8 7.2-16 16-16z"/><path fill-rule="evenodd" class="b" d="m23.5 9h-11c-1.9 0-3.5 1.6-3.5 3.5v3.7 7.3c0 1.9 1.6 3.5 3.5 3.5h11c1.9 0 3.5-1.6 3.5-3.5v-7.3-3.7c0-1.9-1.6-3.5-3.5-3.5zm1.1 2h0.4v0.4 2.6h-3v-3zm-6.6 4c2.5 0 3 2.3 3 3 0 1.7-1.4 3-3 3-1.7 0-3-1.3-3-3 0-0.7 0.5-3 3-3zm7 8.3c0 1-0.8 1.7-1.7 1.7h-10.7c-0.9 0-1.7-0.7-1.7-1.7v-7.3h2.5c-0.2 0.6-0.3 1.4-0.3 2 0 2.7 2.2 4.9 4.9 4.9 2.7 0 4.9-2.2 4.9-4.9 0-0.6-0.1-1.4-0.4-2h2.5z"/></svg>