<svg version="1.2" xmlns="http://www.w3.org/2000/svg" viewBox="0 0 30 29" width="30" height="29"><style>.a{fill:#3c3c3c}</style><path fill-rule="evenodd" class="a" d="m25.3 1.3c-0.1-0.9-1-1.4-1.9-1.3l-22.2 5c-0.8 0.2-1.4 1-1.2 1.9l2.7 12.4-0.6 5.1c-0.1 0.9 0.5 1.7 1.4 1.8l22.6 2.8c0.8 0.1 1.6-0.5 1.7-1.4l2.2-17.8c0.1-0.9-0.5-1.7-1.4-1.8l-1.2-0.2c-0.4 0-0.7-0.3-0.8-0.7zm-13.7 4.5c-0.3 0-0.4-0.6 0-0.7l10.8-2.4c0.5-0.1 0.9 0.2 1 0.6l0.8 3.5c0.1 0.3-0.2 0.6-0.5 0.5zm-9.1 2.2c-0.1-0.4 0.1-0.8 0.5-0.9l0.6-0.1c0.3-0.1 0.6 0.2 0.5 0.5l-0.3 2.8c-0.1 0.5-0.7 0.5-0.8 0zm2.7 16.3c-0.4-0.1-0.8-0.5-0.7-1l1.7-14.7c0.1-0.5 0.5-0.8 0.9-0.7l19.7 2.3c0.5 0.1 0.8 0.5 0.8 1l-1.8 14.7c0 0.5-0.4 0.8-0.9 0.7zm19.7-10.3c0 0.9-0.8 1.7-1.7 1.7-0.9 0-1.7-0.8-1.7-1.7 0-0.9 0.8-1.7 1.7-1.7 0.9 0 1.7 0.8 1.7 1.7zm-5.1 3.2c-0.3-0.4-0.8-0.4-1.1-0.1l-0.7 0.6c-0.4 0.4-1 0.3-1.2-0.1l-1.8-2.9c-0.4-0.5-1.1-0.6-1.5-0.1l-6.3 6.1c-0.4 0.4-0.2 1.1 0.3 1.1l15.4 1.9c0.4 0.1 0.7-0.4 0.5-0.8z"/></svg>