<svg version="1.2" xmlns="http://www.w3.org/2000/svg" viewBox="0 0 14 14" width="14" height="14"><style>.a{fill:#797979}</style><path class="a" d="m4.4 9.6c3.2 3.3 6.2 4.3 6.6 4.4 0.4 0 1 0.1 2-0.8 1.1-1.2 1.3-1.8 0.6-2.4-0.6-0.6-2.1-1.5-2.6-1.8-0.4-0.2-0.7-0.2-1 0.1-0.3 0.2-0.7 0.4-1 0.7-0.3 0.2-0.7 0.3-1.2 0-0.4-0.2-1.2-0.8-2-1.6-0.8-0.8-1.3-1.6-1.6-2-0.3-0.4-0.2-0.8 0-1.2 0.3-0.3 0.6-0.6 0.8-1 0.2-0.3 0.3-0.6 0-1-0.2-0.5-1.2-2-1.8-2.6-0.6-0.7-1.2-0.5-2.3 0.6-1 1-0.9 1.6-0.8 2 0 0.4 1 3.4 4.3 6.6z"/></svg>